<?xml version="1.0" standalone="no"?>
<!DOCTYPE svg PUBLIC "-//W3C//DTD SVG 20010904//EN"
 "http://www.w3.org/TR/2001/REC-SVG-20010904/DTD/svg10.dtd">
<svg version="1.0" xmlns="http://www.w3.org/2000/svg"
 width="257.000000pt" height="257.000000pt" viewBox="0 0 257.000000 257.000000"
 preserveAspectRatio="xMidYMid meet">

<g transform="translate(0.000000,257.000000) scale(0.100000,-0.100000)"
fill="#000000" stroke="none">
<path d="M67 713 c-14 -13 -6 -33 13 -33 22 0 23 1 14 24 -7 17 -16 20 -27 9z"/>
<path d="M180 701 c0 -13 7 -18 25 -18 18 0 25 5 25 18 0 14 -7 19 -25 19 -18
0 -25 -5 -25 -19z"/>
<path d="M310 700 c0 -13 7 -20 20 -20 13 0 20 7 20 20 0 13 -7 20 -20 20 -13
0 -20 -7 -20 -20z"/>
<path d="M440 703 c0 -12 8 -19 21 -20 14 -1 19 3 17 15 -5 24 -38 28 -38 5z"/>
<path d="M560 700 c0 -13 7 -20 18 -20 11 0 18 7 18 20 0 13 -7 20 -18 20 -11
0 -18 -7 -18 -20z"/>
<path d="M689 718 c-7 -23 -4 -38 7 -42 16 -6 28 10 20 29 -4 12 -24 21 -27
13z"/>
<path d="M917 706 c-7 -18 1 -26 25 -26 11 0 18 7 18 20 0 23 -35 28 -43 6z"/>
<path d="M1040 700 c0 -14 6 -20 23 -19 12 0 16 3 10 6 -7 2 -13 11 -13 19 0
8 -4 14 -10 14 -5 0 -10 -9 -10 -20z"/>
<path d="M1172 700 c0 -14 2 -19 5 -12 2 6 2 18 0 25 -3 6 -5 1 -5 -13z"/>
<path d="M1275 702 c3 -7 5 -16 5 -18 0 -13 18 -1 23 15 3 15 0 19 -14 18 -12
-1 -17 -7 -14 -15z"/>
<path d="M1390 700 c0 -13 7 -20 19 -20 14 0 18 5 14 20 -3 11 -12 20 -19 20
-8 0 -14 -9 -14 -20z"/>
<path d="M1520 702 c0 -10 7 -19 15 -19 8 0 15 9 15 19 0 10 -7 18 -15 18 -8
0 -15 -8 -15 -18z"/>
<path d="M1645 710 c-8 -14 3 -30 21 -30 8 0 14 9 14 20 0 21 -24 28 -35 10z"/>
<path d="M1878 714 c-11 -10 3 -34 19 -34 8 0 13 7 11 17 -3 18 -20 27 -30 17z"/>
<path d="M2007 700 c3 -11 9 -20 13 -20 4 0 10 9 13 20 4 15 0 20 -13 20 -13
0 -17 -5 -13 -20z"/>
<path d="M2127 713 c-13 -12 -7 -33 8 -33 8 0 15 9 15 20 0 20 -11 26 -23 13z"/>
<path d="M2247 700 c3 -11 9 -20 13 -20 4 0 10 9 13 20 4 15 0 20 -13 20 -13
0 -17 -5 -13 -20z"/>
<path d="M2367 713 c-13 -13 -7 -33 11 -33 11 0 18 7 18 20 0 20 -16 27 -29
13z"/>
<path d="M2490 700 c0 -13 7 -20 20 -20 13 0 20 7 20 20 0 13 -7 20 -20 20
-13 0 -20 -7 -20 -20z"/>
</g>
</svg>
