<svg id="svg" version="1.1" xmlns="http://www.w3.org/2000/svg" xmlns:xlink="http://www.w3.org/1999/xlink" width="400" height="257.1428571428571" viewBox="0, 0, 400,257.1428571428571"><g id="svgg"><path id="path0" d="M194.019 76.073 C 194.691 76.126,195.791 76.126,196.463 76.073 C 197.135 76.020,196.585 75.977,195.241 75.977 C 193.897 75.977,193.347 76.020,194.019 76.073 M244.702 76.074 C 245.379 76.127,246.420 76.126,247.017 76.072 C 247.614 76.018,247.061 75.975,245.788 75.976 C 244.514 75.976,244.026 76.020,244.702 76.074 M262.765 82.058 C 263.318 82.624,263.828 83.087,263.899 83.087 C 263.969 83.087,263.575 82.624,263.023 82.058 C 262.470 81.492,261.960 81.029,261.889 81.029 C 261.818 81.029,262.213 81.492,262.765 82.058 M213.891 82.830 C 214.443 83.395,214.953 83.859,215.024 83.859 C 215.095 83.859,214.701 83.395,214.148 82.830 C 213.595 82.264,213.085 81.801,213.015 81.801 C 212.944 81.801,213.338 82.264,213.891 82.830 M205.273 90.161 C 205.753 90.656,206.204 91.061,206.275 91.061 C 206.345 91.061,206.010 90.656,205.531 90.161 C 205.051 89.666,204.600 89.260,204.529 89.260 C 204.459 89.260,204.793 89.666,205.273 90.161 M224.893 92.605 C 224.893 93.241,224.943 93.502,225.005 93.183 C 225.066 92.865,225.066 92.344,225.005 92.026 C 224.943 91.707,224.893 91.968,224.893 92.605 M235.697 92.605 C 235.697 93.241,235.747 93.502,235.809 93.183 C 235.870 92.865,235.870 92.344,235.809 92.026 C 235.747 91.707,235.697 91.968,235.697 92.605 M210.238 103.151 C 210.238 103.929,210.286 104.248,210.345 103.859 C 210.404 103.469,210.404 102.833,210.345 102.444 C 210.286 102.055,210.238 102.373,210.238 103.151 M168.320 106.367 C 168.321 107.498,168.366 107.929,168.420 107.324 C 168.475 106.719,168.474 105.793,168.418 105.267 C 168.363 104.740,168.319 105.235,168.320 106.367 M222.053 106.495 C 222.053 106.990,222.106 107.193,222.171 106.945 C 222.236 106.698,222.236 106.293,222.171 106.045 C 222.106 105.797,222.053 106.000,222.053 106.495 M210.231 109.325 C 210.231 109.961,210.281 110.222,210.342 109.904 C 210.404 109.585,210.404 109.064,210.342 108.746 C 210.281 108.428,210.231 108.688,210.231 109.325 M168.548 111.383 C 168.548 111.878,168.601 112.080,168.666 111.833 C 168.731 111.585,168.731 111.180,168.666 110.932 C 168.601 110.685,168.548 110.887,168.548 111.383 M223.636 117.155 C 223.558 117.359,223.548 117.736,223.614 117.991 C 223.693 118.298,223.745 118.217,223.764 117.754 L 223.794 117.052 229.518 116.977 L 235.241 116.903 229.510 116.844 C 224.717 116.794,223.755 116.845,223.636 117.155 M220.340 118.989 C 220.245 119.366,220.217 119.724,220.278 119.785 C 220.339 119.846,220.466 119.587,220.560 119.210 C 220.655 118.833,220.683 118.475,220.622 118.414 C 220.562 118.354,220.435 118.612,220.340 118.989 M235.628 120.021 C 235.629 120.310,236.600 121.929,236.772 121.929 C 236.840 121.929,236.647 121.495,236.344 120.965 C 235.663 119.776,235.627 119.728,235.628 120.021 M205.135 121.736 L 203.859 123.087 205.209 121.810 C 206.464 120.624,206.677 120.386,206.486 120.386 C 206.445 120.386,205.837 120.994,205.135 121.736 M184.309 121.382 C 184.733 121.850,185.428 122.473,185.852 122.766 C 186.764 123.395,186.558 123.173,184.823 121.655 C 183.873 120.824,183.739 120.752,184.309 121.382 M122.730 122.472 C 122.571 122.927,122.486 123.344,122.541 123.399 C 122.596 123.454,122.771 123.127,122.930 122.672 C 123.088 122.218,123.173 121.801,123.118 121.746 C 123.063 121.691,122.888 122.018,122.730 122.472 M256.977 122.508 C 256.598 123.025,256.536 123.205,256.814 122.979 C 257.236 122.637,257.873 121.672,257.678 121.672 C 257.629 121.672,257.313 122.048,256.977 122.508 M171.318 122.285 C 171.318 122.561,172.084 123.987,172.232 123.987 C 172.303 123.987,172.169 123.611,171.935 123.151 C 171.458 122.212,171.318 122.016,171.318 122.285 M269.019 123.663 C 268.781 124.472,268.624 125.173,268.672 125.221 C 268.810 125.359,269.633 122.725,269.539 122.445 C 269.492 122.306,269.258 122.854,269.019 123.663 M168.893 124.244 C 168.988 124.598,169.173 125.061,169.304 125.273 C 169.470 125.541,169.490 125.463,169.370 125.016 C 169.276 124.662,169.091 124.199,168.960 123.987 C 168.794 123.719,168.774 123.797,168.893 124.244 M156.182 124.116 C 156.181 124.257,156.337 124.778,156.527 125.273 C 156.718 125.768,156.878 126.000,156.882 125.788 C 156.886 125.576,156.731 125.055,156.537 124.630 C 156.342 124.206,156.183 123.974,156.182 124.116 M239.228 124.114 C 239.228 124.288,241.318 125.328,241.434 125.211 C 241.488 125.157,241.014 124.861,240.380 124.553 C 239.747 124.246,239.228 124.048,239.228 124.114 M217.646 125.160 C 217.348 125.664,217.222 126.004,217.365 125.916 C 217.643 125.743,218.478 124.244,218.296 124.244 C 218.235 124.244,217.943 124.656,217.646 125.160 M254.850 124.399 C 254.765 124.485,253.964 124.826,253.071 125.158 C 252.178 125.490,251.587 125.767,251.759 125.774 C 252.236 125.795,254.890 124.758,255.059 124.485 C 255.225 124.216,255.089 124.160,254.850 124.399 M198.842 125.016 C 198.325 125.182,198.300 125.224,198.714 125.230 C 198.997 125.234,199.460 125.138,199.743 125.016 C 200.398 124.734,199.722 124.734,198.842 125.016 M225.341 125.159 C 225.337 125.503,226.814 127.846,227.035 127.846 C 227.127 127.846,227.081 127.701,226.934 127.523 C 226.786 127.346,226.368 126.680,226.005 126.044 C 225.641 125.408,225.342 125.009,225.341 125.159 M192.608 125.455 C 192.927 125.517,193.391 125.514,193.636 125.450 C 193.882 125.386,193.621 125.335,193.055 125.338 C 192.489 125.341,192.288 125.394,192.608 125.455 M196.849 125.451 C 197.096 125.515,197.502 125.515,197.749 125.451 C 197.997 125.386,197.794 125.333,197.299 125.333 C 196.804 125.333,196.601 125.386,196.849 125.451 M246.367 126.231 C 246.826 126.288,247.579 126.288,248.039 126.231 C 248.498 126.174,248.122 126.127,247.203 126.127 C 246.283 126.127,245.907 126.174,246.367 126.231 M174.340 127.203 C 174.777 127.768,175.691 128.752,176.371 129.389 C 177.319 130.276,177.223 130.126,175.960 128.746 C 173.698 126.275,173.417 126.007,174.340 127.203 M214.782 128.772 C 214.009 129.565,212.451 130.838,211.321 131.602 C 210.190 132.365,209.391 132.990,209.544 132.990 C 210.068 132.990,213.374 130.471,214.912 128.900 C 215.756 128.037,216.389 127.331,216.318 127.331 C 216.246 127.331,215.556 127.980,214.782 128.772 M266.367 128.620 C 261.055 135.235,248.394 137.677,236.988 134.286 C 234.538 133.558,233.953 133.507,235.434 134.150 C 236.167 134.469,234.409 134.514,221.222 134.517 C 206.268 134.520,206.180 134.517,207.203 134.033 C 208.631 133.358,208.264 133.393,206.053 134.145 C 199.750 136.289,191.008 136.295,184.731 134.160 C 182.795 133.502,182.426 133.492,183.601 134.129 C 184.231 134.471,180.478 134.514,149.260 134.523 L 114.212 134.534 114.251 150.804 C 114.272 159.752,114.338 166.756,114.396 166.367 L 114.504 165.659 195.756 165.659 L 277.008 165.659 277.115 166.367 C 277.174 166.756,277.239 160.114,277.260 151.608 C 277.282 143.101,277.227 135.780,277.138 135.338 L 276.977 134.534 267.685 134.521 L 258.392 134.508 260.450 133.457 C 263.424 131.939,266.184 129.621,267.362 127.653 C 267.754 126.998,267.367 127.374,266.367 128.620 M120.039 129.942 C 119.663 130.958,119.399 131.832,119.452 131.885 C 119.505 131.938,119.855 131.150,120.232 130.135 C 120.608 129.120,120.872 128.246,120.818 128.192 C 120.765 128.139,120.414 128.926,120.039 129.942 M132.250 130.449 C 131.811 131.756,131.507 132.878,131.572 132.944 C 131.719 133.091,131.800 132.881,132.595 130.300 C 133.471 127.452,133.218 127.561,132.250 130.449 M170.336 128.360 C 170.985 130.310,171.925 132.726,172.005 132.647 C 172.120 132.532,170.592 128.310,170.362 128.110 C 170.277 128.035,170.265 128.148,170.336 128.360 M227.753 128.923 C 228.682 130.167,232.026 132.873,232.026 132.380 C 232.026 132.295,231.534 131.915,230.932 131.535 C 230.331 131.155,229.210 130.199,228.442 129.410 C 227.490 128.432,227.270 128.277,227.753 128.923 M158.614 131.961 C 158.698 132.457,158.901 133.151,159.065 133.505 L 159.364 134.148 165.855 134.217 C 170.058 134.261,172.347 134.195,172.347 134.028 C 172.347 133.865,169.972 133.746,165.874 133.702 L 159.401 133.633 158.931 132.347 C 158.555 131.316,158.492 131.240,158.614 131.961 M178.778 131.443 C 178.778 131.658,182.366 133.608,182.498 133.464 C 182.542 133.416,181.723 132.897,180.678 132.311 C 179.633 131.725,178.778 131.334,178.778 131.443 M125.080 133.698 C 121.219 133.743,118.842 133.867,118.842 134.024 C 118.842 134.485,131.105 134.353,131.283 133.891 C 131.364 133.678,131.405 133.532,131.375 133.564 C 131.344 133.597,128.511 133.657,125.080 133.698 M160.234 137.351 C 160.913 137.714,160.833 139.678,160.129 139.937 C 159.116 140.309,158.519 139.822,158.503 138.611 C 158.483 137.204,159.109 136.749,160.234 137.351 M174.503 137.438 C 174.835 137.680,174.935 138.044,174.874 138.788 C 174.734 140.506,172.347 140.358,172.347 138.633 C 172.347 137.465,173.595 136.774,174.503 137.438 M218.748 137.438 C 219.728 138.154,219.210 139.807,218.006 139.807 C 216.993 139.807,216.976 139.792,216.894 138.788 C 216.812 137.782,217.259 137.106,218.006 137.106 C 218.165 137.106,218.498 137.255,218.748 137.438 M232.978 137.311 C 234.067 138.002,233.180 140.244,231.914 140.002 C 231.268 139.878,230.766 139.112,231.230 138.958 C 231.400 138.901,231.382 138.689,231.180 138.358 C 230.681 137.540,232.068 136.732,232.978 137.311 M247.951 137.351 C 248.630 137.714,248.551 139.678,247.846 139.937 C 246.833 140.309,246.236 139.822,246.220 138.611 C 246.200 137.204,246.826 136.749,247.951 137.351 M122.191 138.018 C 122.881 139.834,122.863 139.879,121.435 139.857 C 120.717 139.846,120.129 139.795,120.129 139.743 C 120.129 137.795,121.629 136.539,122.191 138.018 M130.418 138.679 C 130.418 140.091,129.608 140.521,129.140 139.357 L 128.907 138.778 128.891 139.376 C 128.858 140.596,127.982 139.924,127.897 138.613 L 127.820 137.423 129.119 137.423 L 130.418 137.423 130.418 138.679 M137.925 138.006 C 138.428 139.111,137.860 139.936,136.597 139.936 L 135.563 139.936 135.563 138.650 L 135.563 137.363 136.597 137.363 C 137.451 137.363,137.683 137.476,137.925 138.006 M145.595 138.650 C 145.595 139.621,145.501 139.936,145.209 139.936 C 144.997 139.936,144.823 139.762,144.823 139.550 C 144.823 139.338,144.707 139.164,144.566 139.164 C 144.424 139.164,144.309 139.338,144.309 139.550 C 144.309 139.764,144.080 139.936,143.794 139.936 C 143.348 139.936,143.280 139.764,143.280 138.650 L 143.280 137.363 144.437 137.363 L 145.595 137.363 145.595 138.650 M153.055 138.135 C 153.055 138.570,152.914 138.916,152.733 138.927 C 152.476 138.943,152.476 138.973,152.733 139.077 C 153.494 139.384,153.039 139.936,152.026 139.936 L 150.997 139.936 150.997 138.650 L 150.997 137.363 152.026 137.363 C 152.997 137.363,153.055 137.406,153.055 138.135 M181.350 138.264 C 181.350 138.992,181.448 139.164,181.865 139.164 C 182.160 139.164,182.379 139.335,182.379 139.565 C 182.379 139.872,182.151 139.948,181.415 139.887 C 180.243 139.790,179.673 137.363,180.822 137.363 C 181.255 137.363,181.350 137.527,181.350 138.264 M188.760 138.585 C 188.694 139.609,188.598 139.807,188.167 139.807 C 187.736 139.807,187.640 139.609,187.574 138.585 C 187.500 137.420,187.527 137.363,188.167 137.363 C 188.808 137.363,188.835 137.420,188.760 138.585 M195.014 137.814 C 195.042 138.242,195.049 138.242,195.161 137.814 C 195.233 137.541,195.525 137.363,195.903 137.363 C 196.630 137.363,196.650 137.440,196.162 138.353 C 195.961 138.728,195.729 139.246,195.648 139.505 C 195.319 140.548,194.054 138.992,193.959 137.428 C 193.957 137.392,194.186 137.363,194.469 137.363 C 194.777 137.363,194.996 137.545,195.014 137.814 M203.730 138.135 C 203.730 138.570,203.590 138.916,203.408 138.927 C 203.151 138.943,203.151 138.973,203.408 139.077 C 204.169 139.384,203.715 139.936,202.701 139.936 L 201.672 139.936 201.672 138.650 L 201.672 137.363 202.701 137.363 C 203.673 137.363,203.730 137.406,203.730 138.135 M211.286 137.568 C 211.545 137.988,211.121 139.936,210.770 139.936 C 210.576 139.936,210.405 139.733,210.388 139.486 C 210.360 139.057,210.353 139.057,210.241 139.486 C 209.951 140.596,209.132 139.978,209.132 138.650 L 209.132 137.363 210.146 137.363 C 210.703 137.363,211.216 137.455,211.286 137.568 M239.691 137.672 C 239.931 137.912,240.000 137.912,240.000 137.672 C 240.000 137.502,240.232 137.363,240.514 137.363 C 241.143 137.363,241.143 137.296,240.502 138.745 C 239.942 140.011,239.228 140.346,239.228 139.342 C 239.228 139.015,239.058 138.523,238.851 138.249 C 238.202 137.391,238.919 136.900,239.691 137.672 M255.949 137.749 C 255.949 137.961,255.775 138.135,255.563 138.135 C 255.293 138.135,255.177 138.407,255.177 139.035 C 255.177 139.764,255.079 139.936,254.662 139.936 C 254.246 139.936,254.148 139.764,254.148 139.035 C 254.148 138.540,254.032 138.135,253.891 138.135 C 253.749 138.135,253.633 137.961,253.633 137.749 C 253.633 137.463,253.934 137.363,254.791 137.363 C 255.648 137.363,255.949 137.463,255.949 137.749 M263.245 138.071 C 263.150 138.460,262.945 138.863,262.790 138.967 C 262.596 139.097,262.608 139.157,262.830 139.160 C 263.006 139.162,263.151 139.338,263.151 139.550 C 263.151 139.829,262.865 139.936,262.122 139.936 L 261.093 139.936 261.093 138.650 L 261.093 137.363 262.256 137.363 C 263.394 137.363,263.415 137.378,263.245 138.071 M271.332 138.604 L 271.254 139.807 269.904 139.885 L 268.553 139.963 268.553 138.681 L 268.553 137.400 269.981 137.400 L 271.409 137.400 271.332 138.604 M136.592 138.650 C 136.592 138.932,136.707 139.164,136.849 139.164 C 136.990 139.164,137.106 138.932,137.106 138.650 C 137.106 138.367,136.990 138.135,136.849 138.135 C 136.707 138.135,136.592 138.367,136.592 138.650 M173.376 138.650 C 173.376 138.981,173.506 139.163,173.698 139.100 C 173.875 139.041,174.019 138.838,174.019 138.650 C 174.019 138.461,173.875 138.258,173.698 138.199 C 173.506 138.136,173.376 138.318,173.376 138.650 M217.749 138.392 C 217.562 138.696,217.805 139.164,218.150 139.164 C 218.283 139.164,218.392 138.932,218.392 138.650 C 218.392 138.107,218.018 137.957,217.749 138.392 " stroke="none" fill="#9dceec" fill-rule="evenodd"></path><path id="path1" d="M114.212 62.511 L 114.212 98.013 122.871 97.946 L 131.530 97.878 132.519 94.920 C 133.064 93.293,133.682 91.595,133.894 91.148 C 134.106 90.700,134.520 89.543,134.815 88.575 C 135.110 87.608,135.733 85.833,136.200 84.630 C 136.668 83.428,137.424 81.373,137.881 80.064 L 138.713 77.685 145.732 77.685 L 152.752 77.685 153.796 80.707 C 156.393 88.225,157.465 91.245,157.791 91.961 C 157.984 92.386,158.527 93.920,158.997 95.370 L 159.852 98.006 164.428 98.006 C 168.908 98.006,169.003 97.995,169.003 97.465 C 169.003 97.167,169.184 96.212,169.405 95.343 C 172.580 82.864,182.007 75.765,195.370 75.790 C 208.650 75.814,217.931 82.875,220.936 95.241 L 221.608 98.006 223.503 98.006 C 225.343 98.006,225.393 97.990,225.239 97.428 C 223.228 90.078,226.728 81.815,233.266 78.480 C 248.262 70.830,267.995 79.251,268.035 93.317 L 268.039 94.672 262.318 94.603 L 256.598 94.534 256.432 93.376 C 255.614 87.653,249.117 84.735,241.286 86.574 C 235.955 87.825,234.099 93.753,238.170 96.522 C 238.823 96.966,239.439 97.453,239.540 97.604 C 239.666 97.792,245.633 97.918,258.511 98.006 L 277.299 98.135 277.299 62.572 L 277.299 27.010 195.756 27.010 L 114.212 27.010 114.212 62.511 M191.476 86.955 C 186.994 87.842,182.737 92.262,181.459 97.353 L 181.295 98.006 195.334 98.006 C 210.769 98.006,209.524 98.137,208.866 96.592 C 206.876 91.917,205.271 89.778,202.784 88.489 C 202.102 88.135,201.481 87.763,201.406 87.663 C 200.826 86.893,194.183 86.419,191.476 86.955 M145.107 92.677 C 144.938 93.274,144.690 93.994,144.557 94.277 C 144.423 94.559,144.094 95.514,143.824 96.399 L 143.334 98.006 145.493 98.006 C 146.681 98.006,147.653 97.908,147.653 97.788 C 147.653 97.480,147.151 95.965,146.746 95.048 C 146.559 94.624,146.266 93.725,146.097 93.050 C 145.693 91.442,145.479 91.362,145.107 92.677 M120.759 138.255 C 120.554 138.746,120.386 139.325,120.386 139.542 C 120.386 140.015,120.810 140.067,120.974 139.614 C 121.067 139.358,121.203 139.359,121.644 139.620 C 122.413 140.074,122.580 139.553,122.062 138.314 C 121.567 137.129,121.236 137.114,120.759 138.255 M128.274 137.535 C 128.005 137.804,128.074 139.630,128.360 139.807 C 128.508 139.898,128.621 139.658,128.626 139.243 L 128.634 138.521 129.162 139.230 C 129.453 139.619,129.797 139.873,129.926 139.793 C 130.246 139.595,130.225 137.363,129.904 137.363 C 129.762 137.363,129.642 137.624,129.638 137.942 L 129.629 138.521 129.146 137.942 C 128.624 137.316,128.535 137.274,128.274 137.535 M135.820 138.529 C 135.820 139.846,136.227 140.184,137.251 139.718 C 138.488 139.154,137.948 137.363,136.540 137.363 C 135.857 137.363,135.820 137.424,135.820 138.529 M143.537 138.506 C 143.537 139.134,143.653 139.720,143.794 139.807 C 143.936 139.895,144.051 139.728,144.051 139.436 C 144.051 138.743,144.722 138.751,144.904 139.447 C 145.115 140.254,145.573 139.792,145.509 138.837 C 145.379 136.880,143.537 136.571,143.537 138.506 M151.099 137.725 C 150.697 138.773,151.109 139.805,151.961 139.888 C 152.431 139.933,152.797 139.848,152.797 139.695 C 152.797 139.544,152.566 139.421,152.283 139.421 C 152.000 139.421,151.768 139.305,151.768 139.164 C 151.768 139.023,152.000 138.907,152.283 138.907 C 152.566 138.907,152.797 138.791,152.797 138.650 C 152.797 138.508,152.566 138.392,152.283 138.392 C 152.000 138.392,151.768 138.277,151.768 138.135 C 151.768 137.994,152.000 137.878,152.283 137.878 C 152.566 137.878,152.797 137.762,152.797 137.621 C 152.797 137.222,151.256 137.316,151.099 137.725 M158.691 137.777 C 158.320 138.224,158.917 138.907,159.678 138.907 C 159.872 138.907,159.955 139.028,159.864 139.176 C 159.749 139.362,159.587 139.355,159.345 139.154 C 158.851 138.744,158.337 139.096,158.733 139.573 C 159.125 140.045,159.854 140.036,160.255 139.553 C 160.637 139.092,160.420 138.392,159.895 138.392 C 159.686 138.392,159.441 138.272,159.351 138.125 C 159.243 137.951,159.420 137.916,159.853 138.025 C 160.397 138.161,160.491 138.116,160.361 137.778 C 160.156 137.243,159.134 137.243,158.691 137.777 M172.924 137.661 C 172.485 138.100,172.522 139.290,172.987 139.676 C 173.958 140.482,175.424 138.998,174.739 137.902 C 174.414 137.383,173.344 137.241,172.924 137.661 M180.579 138.650 C 180.579 139.901,180.599 139.936,181.335 139.936 C 182.251 139.936,182.623 139.491,181.804 139.375 C 181.335 139.309,181.206 139.105,181.142 138.328 C 181.024 136.902,180.579 137.156,180.579 138.650 M187.900 137.682 C 187.674 138.272,187.867 139.807,188.167 139.807 C 188.520 139.807,188.652 137.874,188.322 137.544 C 188.138 137.360,188.007 137.403,187.900 137.682 M194.212 137.757 C 194.212 138.322,194.919 139.936,195.166 139.936 C 195.470 139.936,196.247 137.637,195.995 137.481 C 195.878 137.408,195.643 137.608,195.473 137.925 L 195.164 138.502 194.954 137.933 C 194.714 137.284,194.212 137.165,194.212 137.757 M201.929 138.650 C 201.929 139.926,203.030 140.603,203.601 139.678 C 203.689 139.537,203.522 139.421,203.231 139.421 C 202.939 139.421,202.701 139.305,202.701 139.164 C 202.701 139.023,202.875 138.907,203.087 138.907 C 203.299 138.907,203.473 138.791,203.473 138.650 C 203.473 138.508,203.299 138.392,203.087 138.392 C 202.875 138.392,202.701 138.277,202.701 138.135 C 202.701 137.994,202.932 137.878,203.215 137.878 C 203.498 137.878,203.730 137.762,203.730 137.621 C 203.730 137.479,203.325 137.363,202.830 137.363 L 201.929 137.363 201.929 138.650 M209.389 138.665 C 209.389 139.467,209.488 139.905,209.646 139.807 C 209.788 139.720,209.904 139.481,209.904 139.277 C 209.904 138.689,210.595 138.847,210.815 139.486 C 210.986 139.982,211.030 139.923,211.119 139.073 C 211.264 137.704,211.075 137.363,210.169 137.363 C 209.403 137.363,209.389 137.387,209.389 138.665 M217.158 137.672 C 216.400 138.430,216.965 139.936,218.006 139.936 C 218.734 139.936,219.164 139.458,219.164 138.650 C 219.164 137.841,218.734 137.363,218.006 137.363 C 217.709 137.363,217.327 137.502,217.158 137.672 M231.352 137.735 C 231.171 138.207,231.670 138.907,232.186 138.907 C 232.381 138.907,232.540 139.023,232.540 139.164 C 232.540 139.511,232.196 139.489,231.824 139.117 C 231.388 138.681,231.115 139.072,231.516 139.556 C 231.701 139.779,232.082 139.926,232.363 139.884 C 232.976 139.792,233.594 138.897,233.155 138.736 C 232.433 138.470,231.863 137.842,232.506 138.020 C 232.954 138.144,233.085 138.096,233.001 137.840 C 232.831 137.324,231.542 137.241,231.352 137.735 M238.714 137.571 C 238.714 137.686,238.884 138.004,239.091 138.279 C 239.299 138.553,239.473 139.039,239.477 139.357 C 239.482 139.675,239.601 139.936,239.743 139.936 C 239.884 139.936,240.000 139.756,240.000 139.537 C 240.000 139.318,240.182 138.786,240.405 138.356 C 240.868 137.460,240.652 136.990,240.115 137.725 C 239.792 138.166,239.741 138.172,239.594 137.789 C 239.429 137.361,238.714 137.184,238.714 137.571 M246.408 137.777 C 246.037 138.224,246.634 138.907,247.396 138.907 C 247.589 138.907,247.672 139.028,247.581 139.176 C 247.466 139.362,247.304 139.355,247.062 139.154 C 246.568 138.744,246.054 139.096,246.450 139.573 C 246.842 140.045,247.571 140.036,247.972 139.553 C 248.354 139.092,248.138 138.392,247.612 138.392 C 247.403 138.392,247.159 138.272,247.068 138.125 C 246.960 137.951,247.137 137.916,247.570 138.025 C 248.114 138.161,248.208 138.116,248.078 137.778 C 247.873 137.243,246.851 137.243,246.408 137.777 M253.762 137.621 C 253.675 137.762,253.784 137.878,254.004 137.878 C 254.290 137.878,254.405 138.133,254.405 138.763 C 254.405 139.250,254.521 139.720,254.662 139.807 C 254.816 139.902,254.920 139.593,254.920 139.042 C 254.920 138.459,255.062 138.064,255.305 137.971 C 255.518 137.889,255.691 137.719,255.691 137.593 C 255.691 137.277,253.959 137.302,253.762 137.621 M261.401 138.585 C 261.482 139.857,262.264 140.411,262.975 139.700 C 263.176 139.500,263.095 139.421,262.688 139.421 C 262.377 139.421,262.122 139.305,262.122 139.164 C 262.122 139.023,262.296 138.907,262.508 138.907 C 262.720 138.907,262.894 138.791,262.894 138.650 C 262.894 138.508,262.720 138.392,262.508 138.392 C 262.296 138.392,262.122 138.277,262.122 138.135 C 262.122 137.994,262.354 137.878,262.637 137.878 C 262.920 137.878,263.151 137.762,263.151 137.621 C 263.151 137.479,262.740 137.363,262.237 137.363 L 261.322 137.363 261.401 138.585 M268.810 138.594 C 268.810 139.945,269.928 140.427,270.382 139.271 C 270.551 138.839,270.577 138.856,270.593 139.408 C 270.606 139.855,270.691 139.959,270.886 139.764 C 271.250 139.399,271.085 137.561,270.675 137.426 C 270.498 137.368,270.256 137.582,270.138 137.902 L 269.923 138.483 269.777 137.923 C 269.483 136.799,268.810 137.265,268.810 138.594 M137.106 138.650 C 137.106 139.283,136.631 139.567,136.434 139.052 C 136.231 138.524,136.516 137.801,136.847 138.005 C 136.990 138.093,137.106 138.383,137.106 138.650 M174.148 138.622 C 174.148 139.214,173.928 139.420,173.480 139.247 C 173.032 139.076,173.004 138.219,173.441 138.063 C 173.899 137.898,174.148 138.095,174.148 138.622 M218.346 139.091 C 218.096 139.393,217.992 139.388,217.665 139.061 C 217.338 138.734,217.332 138.611,217.629 138.253 C 217.953 137.863,218.005 137.866,218.310 138.284 C 218.560 138.626,218.569 138.822,218.346 139.091 " stroke="none" fill="#0e7fc1" fill-rule="evenodd"></path><path id="path2" d="M142.330 77.877 C 144.284 77.921,147.410 77.921,149.276 77.877 C 151.142 77.833,149.543 77.797,145.723 77.797 C 141.904 77.798,140.377 77.834,142.330 77.877 M176.325 83.151 L 175.048 84.502 176.399 83.225 C 177.654 82.039,177.867 81.801,177.675 81.801 C 177.635 81.801,177.027 82.408,176.325 83.151 M244.702 85.849 C 245.379 85.902,246.420 85.901,247.017 85.847 C 247.614 85.793,247.061 85.750,245.788 85.750 C 244.514 85.751,244.026 85.795,244.702 85.849 M194.284 86.363 C 194.961 86.416,196.002 86.416,196.599 86.362 C 197.196 86.308,196.643 86.264,195.370 86.265 C 194.096 86.266,193.608 86.310,194.284 86.363 M253.633 87.798 C 253.633 87.842,254.010 88.218,254.469 88.634 L 255.305 89.389 254.550 88.553 C 253.846 87.774,253.633 87.599,253.633 87.798 M184.938 90.225 L 184.051 91.190 185.016 90.303 C 185.914 89.478,186.099 89.260,185.903 89.260 C 185.860 89.260,185.425 89.695,184.938 90.225 M225.140 90.804 C 225.140 91.299,225.193 91.502,225.258 91.254 C 225.322 91.006,225.322 90.601,225.258 90.354 C 225.193 90.106,225.140 90.309,225.140 90.804 M225.145 94.534 C 225.148 95.100,225.201 95.301,225.262 94.981 C 225.324 94.661,225.322 94.198,225.257 93.952 C 225.193 93.706,225.142 93.968,225.145 94.534 M259.600 94.340 C 261.113 94.385,263.660 94.385,265.259 94.340 C 266.859 94.295,265.621 94.258,262.508 94.258 C 259.395 94.257,258.087 94.294,259.600 94.340 M236.399 95.515 C 236.399 95.559,236.775 95.935,237.235 96.351 L 238.071 97.106 237.315 96.270 C 236.611 95.491,236.399 95.316,236.399 95.515 M168.594 106.367 C 168.594 108.772,168.632 109.790,168.680 108.630 C 168.727 107.470,168.728 105.502,168.680 104.257 C 168.633 103.012,168.594 103.961,168.594 106.367 M228.167 102.717 C 228.167 102.761,228.543 103.138,229.003 103.553 L 229.839 104.309 229.084 103.473 C 228.379 102.693,228.167 102.518,228.167 102.717 M179.900 106.495 C 179.900 107.839,179.943 108.389,179.996 107.717 C 180.049 107.045,180.049 105.945,179.996 105.273 C 179.943 104.601,179.900 105.151,179.900 106.495 M210.509 106.367 C 210.509 107.640,210.552 108.193,210.606 107.596 C 210.660 106.999,210.661 105.957,210.607 105.281 C 210.554 104.605,210.510 105.093,210.509 106.367 M269.672 118.585 C 269.672 119.788,269.716 120.280,269.770 119.678 C 269.824 119.077,269.824 118.093,269.770 117.492 C 269.716 116.891,269.672 117.383,269.672 118.585 M258.323 118.842 C 258.323 119.338,258.376 119.540,258.441 119.293 C 258.506 119.045,258.506 118.640,258.441 118.392 C 258.376 118.145,258.323 118.347,258.323 118.842 M205.129 121.994 L 204.373 122.830 205.209 122.074 C 205.669 121.659,206.045 121.282,206.045 121.238 C 206.045 121.039,205.833 121.214,205.129 121.994 M194.155 125.719 C 194.760 125.774,195.686 125.773,196.213 125.718 C 196.739 125.662,196.244 125.618,195.113 125.619 C 193.981 125.620,193.550 125.665,194.155 125.719 M176.720 129.518 C 177.200 130.013,177.651 130.418,177.722 130.418 C 177.792 130.418,177.457 130.013,176.977 129.518 C 176.498 129.023,176.047 128.617,175.976 128.617 C 175.906 128.617,176.240 129.023,176.720 129.518 M231.768 132.088 C 231.768 132.262,233.858 133.302,233.974 133.185 C 234.028 133.132,233.554 132.836,232.920 132.528 C 232.287 132.220,231.768 132.022,231.768 132.088 M208.875 132.862 C 208.238 133.203,207.808 133.487,207.920 133.493 C 208.193 133.509,210.161 132.498,210.161 132.342 C 210.161 132.172,210.171 132.167,208.875 132.862 M242.637 135.483 C 242.884 135.547,243.289 135.547,243.537 135.483 C 243.785 135.418,243.582 135.365,243.087 135.365 C 242.592 135.365,242.389 135.418,242.637 135.483 M193.251 135.747 C 193.642 135.806,194.221 135.805,194.537 135.744 C 194.854 135.683,194.534 135.634,193.826 135.636 C 193.119 135.638,192.860 135.688,193.251 135.747 M196.077 135.747 C 196.466 135.806,197.103 135.806,197.492 135.747 C 197.881 135.688,197.563 135.640,196.785 135.640 C 196.006 135.640,195.688 135.688,196.077 135.747 M246.114 135.749 C 246.576 135.806,247.271 135.805,247.657 135.747 C 248.044 135.688,247.666 135.641,246.817 135.642 C 245.968 135.644,245.652 135.692,246.114 135.749 M249.453 135.744 C 249.772 135.806,250.293 135.806,250.611 135.744 C 250.929 135.683,250.669 135.633,250.032 135.633 C 249.395 135.633,249.135 135.683,249.453 135.744 M114.377 166.624 C 114.290 167.154,114.217 172.248,114.215 177.942 L 114.212 188.296 195.756 188.296 L 277.299 188.296 277.296 177.942 C 277.295 172.248,277.222 167.154,277.134 166.624 L 276.974 165.659 195.756 165.659 L 114.537 165.659 114.377 166.624 " stroke="none" fill="#c7dcf4" fill-rule="evenodd"></path><path id="path3" d="M190.587 76.389 C 176.566 78.177,168.742 88.947,168.747 106.449 C 168.754 125.599,177.951 135.625,195.474 135.584 C 212.114 135.546,221.095 126.441,221.883 108.810 C 222.874 86.660,210.507 73.849,190.587 76.389 M240.900 76.416 C 230.358 77.857,224.229 85.137,225.336 94.904 C 226.098 101.631,229.917 105.761,237.556 108.118 C 239.788 108.807,246.700 110.580,249.731 111.242 C 256.171 112.648,258.340 114.528,258.351 118.714 C 258.378 129.158,236.649 128.862,235.153 118.397 L 234.978 117.170 229.367 117.101 L 223.756 117.032 223.927 118.516 C 225.251 129.973,233.217 135.569,248.232 135.587 C 261.203 135.604,269.582 128.975,269.582 118.695 C 269.582 109.572,265.744 105.283,254.920 102.309 C 249.274 100.757,246.679 100.084,244.344 99.565 C 237.525 98.048,234.656 94.955,235.903 90.464 C 236.928 86.773,242.931 84.801,249.383 86.036 C 253.430 86.810,256.231 89.460,256.845 93.094 L 257.023 94.148 262.524 94.148 L 268.026 94.148 267.878 93.312 C 266.457 85.264,263.306 80.995,256.720 78.196 C 252.647 76.465,246.009 75.718,240.900 76.416 M138.175 80.193 C 137.747 81.431,136.747 84.238,135.953 86.431 C 135.159 88.624,133.999 91.865,133.375 93.633 C 132.751 95.402,131.535 98.817,130.672 101.222 C 129.809 103.627,128.654 106.868,128.107 108.424 C 127.559 109.981,126.458 113.048,125.659 115.241 C 124.860 117.434,123.760 120.502,123.214 122.058 C 122.668 123.614,121.520 126.855,120.663 129.260 C 119.806 131.666,119.103 133.662,119.102 133.698 C 119.101 133.733,121.812 133.762,125.127 133.762 L 131.155 133.762 131.320 133.183 C 131.411 132.865,134.553 123.286,138.302 111.897 C 142.050 100.508,145.164 91.045,145.220 90.868 C 145.425 90.220,145.840 90.575,146.122 91.640 C 146.282 92.241,146.910 94.238,147.518 96.077 C 148.126 97.916,149.280 101.505,150.083 104.051 C 152.021 110.200,154.125 116.813,155.647 121.543 C 156.330 123.666,157.493 127.283,158.232 129.582 L 159.574 133.762 165.860 133.762 C 171.744 133.762,172.133 133.733,171.961 133.312 C 171.860 133.064,171.334 131.588,170.792 130.032 C 170.251 128.476,169.155 125.350,168.358 123.087 C 167.561 120.823,166.404 117.524,165.787 115.756 C 165.170 113.987,163.952 110.572,163.081 108.167 C 162.210 105.762,161.108 102.637,160.632 101.222 C 160.156 99.807,159.061 96.682,158.199 94.277 C 156.783 90.326,155.879 87.744,153.316 80.322 L 152.494 77.942 145.723 77.942 L 138.953 77.942 138.175 80.193 M198.296 86.425 C 205.550 87.800,209.604 93.356,210.448 103.079 C 211.705 117.543,205.076 126.560,193.823 125.695 C 185.300 125.040,181.168 120.194,180.029 109.518 C 178.416 94.396,186.492 84.186,198.296 86.425 " stroke="none" fill="#f7f9fb" fill-rule="evenodd"></path><path id="path4" d="M194.277 75.814 C 194.807 75.870,195.675 75.870,196.206 75.814 C 196.736 75.759,196.302 75.713,195.241 75.713 C 194.180 75.713,193.746 75.759,194.277 75.814 M244.695 75.814 C 245.225 75.870,246.093 75.870,246.624 75.814 C 247.154 75.759,246.720 75.713,245.659 75.713 C 244.598 75.713,244.164 75.759,244.695 75.814 M191.318 76.066 C 191.637 76.127,192.158 76.127,192.476 76.066 C 192.794 76.004,192.534 75.954,191.897 75.954 C 191.260 75.954,191.000 76.004,191.318 76.066 M198.139 76.069 C 198.530 76.128,199.108 76.126,199.425 76.065 C 199.741 76.004,199.421 75.956,198.714 75.958 C 198.006 75.960,197.748 76.010,198.139 76.069 M241.608 76.068 C 241.997 76.127,242.633 76.127,243.023 76.068 C 243.412 76.010,243.093 75.961,242.315 75.961 C 241.537 75.961,241.219 76.010,241.608 76.068 M248.424 76.066 C 248.743 76.127,249.264 76.127,249.582 76.066 C 249.900 76.004,249.640 75.954,249.003 75.954 C 248.367 75.954,248.106 76.004,248.424 76.066 M201.158 76.399 C 201.794 76.533,202.605 76.705,202.958 76.781 C 203.438 76.885,203.500 76.858,203.202 76.675 C 202.982 76.540,202.172 76.368,201.401 76.293 L 200.000 76.156 201.158 76.399 M187.395 76.656 C 186.740 76.938,187.416 76.938,188.296 76.656 C 188.813 76.490,188.838 76.449,188.424 76.442 C 188.141 76.438,187.678 76.534,187.395 76.656 M237.942 76.668 C 237.660 76.858,237.764 76.882,238.328 76.756 C 239.274 76.545,239.479 76.397,238.821 76.403 C 238.550 76.405,238.154 76.524,237.942 76.668 M252.111 76.491 C 252.170 76.542,252.566 76.661,252.990 76.756 C 253.554 76.882,253.658 76.858,253.376 76.668 C 253.029 76.433,251.853 76.269,252.111 76.491 M256.999 78.029 C 257.405 78.360,260.035 79.645,259.917 79.456 C 259.764 79.208,257.385 77.942,257.072 77.942 C 256.973 77.942,256.940 77.981,256.999 78.029 M207.610 78.295 C 207.875 78.532,209.389 79.228,209.389 79.113 C 209.389 78.965,207.963 78.199,207.687 78.199 C 207.586 78.199,207.551 78.243,207.610 78.295 M181.543 78.861 C 180.582 79.383,180.640 79.600,181.608 79.100 C 182.032 78.880,182.379 78.646,182.379 78.579 C 182.379 78.413,182.352 78.422,181.543 78.861 M232.347 78.968 C 231.887 79.249,231.511 79.534,231.511 79.602 C 231.511 79.670,231.916 79.486,232.412 79.194 C 232.907 78.902,233.312 78.617,233.312 78.560 C 233.312 78.395,233.231 78.430,232.347 78.968 M229.058 81.608 L 227.781 82.958 229.132 81.682 C 230.387 80.496,230.600 80.257,230.408 80.257 C 230.368 80.257,229.760 80.865,229.058 81.608 M261.093 80.338 C 261.093 80.401,261.518 80.778,262.038 81.174 C 262.557 81.570,262.901 81.763,262.802 81.602 C 262.598 81.273,261.093 80.159,261.093 80.338 M175.913 83.304 C 174.730 84.555,173.553 85.944,173.297 86.390 C 172.623 87.569,172.930 87.386,173.769 86.109 C 174.164 85.508,175.357 84.119,176.420 83.023 C 177.483 81.926,178.288 81.029,178.209 81.029 C 178.130 81.029,177.097 82.053,175.913 83.304 M263.900 83.044 C 264.038 83.303,264.356 83.679,264.606 83.880 C 264.928 84.138,264.890 84.002,264.474 83.408 C 263.839 82.503,263.492 82.283,263.900 83.044 M215.048 83.859 C 215.496 84.424,215.921 84.887,215.992 84.887 C 216.063 84.887,215.754 84.424,215.305 83.859 C 214.857 83.293,214.433 82.830,214.362 82.830 C 214.291 82.830,214.600 83.293,215.048 83.859 M135.836 85.547 C 135.534 86.353,135.332 87.058,135.387 87.113 C 135.442 87.167,135.731 86.549,136.029 85.740 C 136.327 84.930,136.529 84.225,136.478 84.174 C 136.427 84.122,136.138 84.740,135.836 85.547 M154.919 84.437 C 154.984 84.614,155.240 85.374,155.487 86.126 C 155.734 86.878,155.982 87.448,156.037 87.393 C 156.168 87.262,155.107 84.116,154.933 84.116 C 154.860 84.116,154.854 84.260,154.919 84.437 M225.996 86.049 C 225.412 87.447,225.515 87.789,226.120 86.457 C 226.402 85.835,226.580 85.272,226.515 85.207 C 226.450 85.142,226.216 85.521,225.996 86.049 M217.383 87.156 C 217.839 87.889,218.260 88.489,218.319 88.489 C 218.503 88.489,217.269 86.415,216.903 86.112 C 216.712 85.953,216.928 86.423,217.383 87.156 M244.437 86.105 C 245.109 86.158,246.209 86.158,246.881 86.105 C 247.553 86.052,247.003 86.009,245.659 86.009 C 244.315 86.009,243.765 86.052,244.437 86.105 M194.148 86.619 C 194.749 86.673,195.733 86.673,196.334 86.619 C 196.936 86.565,196.444 86.521,195.241 86.521 C 194.039 86.521,193.547 86.565,194.148 86.619 M237.862 88.039 C 237.061 88.832,237.058 88.842,237.802 88.234 C 238.233 87.881,238.695 87.505,238.830 87.397 C 238.964 87.290,238.991 87.203,238.890 87.203 C 238.789 87.203,238.326 87.579,237.862 88.039 M172.428 87.781 C 171.973 88.489,171.571 89.342,171.654 89.424 C 171.702 89.473,172.001 89.050,172.318 88.486 C 172.841 87.556,172.927 87.006,172.428 87.781 M187.638 88.362 C 186.035 89.307,183.901 91.422,183.226 92.733 C 182.713 93.729,182.857 93.582,184.256 91.677 C 185.469 90.027,186.223 89.393,188.390 88.197 C 189.116 87.797,189.588 87.467,189.438 87.464 C 189.288 87.462,188.478 87.866,187.638 88.362 M201.427 87.646 C 201.434 87.756,201.984 88.108,202.649 88.428 C 203.338 88.759,203.637 88.834,203.344 88.601 C 202.590 88.002,201.413 87.415,201.427 87.646 M253.566 88.143 C 254.024 88.545,254.689 89.273,255.045 89.761 C 255.400 90.248,255.691 90.548,255.691 90.428 C 255.691 90.015,254.406 88.524,253.570 87.968 L 252.733 87.411 253.566 88.143 M205.145 90.289 C 205.841 90.997,206.469 91.576,206.540 91.576 C 206.611 91.576,206.099 90.997,205.402 90.289 C 204.705 89.582,204.077 89.003,204.006 89.003 C 203.936 89.003,204.448 89.582,205.145 90.289 M219.855 92.400 C 220.246 93.487,220.614 94.327,220.673 94.268 C 220.814 94.127,219.693 91.008,219.383 90.678 C 219.251 90.538,219.464 91.313,219.855 92.400 M144.967 92.280 C 144.710 93.095,144.440 93.936,144.366 94.148 C 144.277 94.405,144.319 94.448,144.490 94.277 C 144.632 94.135,144.895 93.472,145.075 92.802 C 145.483 91.282,145.655 91.385,146.226 93.498 C 146.477 94.424,146.805 95.258,146.954 95.351 C 147.113 95.449,147.170 95.367,147.091 95.155 C 147.017 94.955,146.694 93.981,146.372 92.990 C 145.596 90.595,145.511 90.552,144.967 92.280 M235.964 92.476 C 235.965 93.325,236.013 93.641,236.071 93.179 C 236.128 92.716,236.127 92.022,236.068 91.635 C 236.009 91.249,235.963 91.627,235.964 92.476 M133.644 91.603 C 133.035 93.277,132.742 94.243,132.821 94.321 C 132.872 94.373,133.158 93.752,133.457 92.942 C 133.755 92.132,133.948 91.419,133.887 91.357 C 133.825 91.295,133.715 91.406,133.644 91.603 M157.970 93.081 C 158.269 93.967,158.558 94.646,158.613 94.592 C 158.747 94.458,157.932 92.025,157.650 91.716 C 157.527 91.581,157.671 92.196,157.970 93.081 M170.074 93.055 C 169.666 94.091,169.000 96.847,169.024 97.400 C 169.035 97.663,169.313 96.836,169.641 95.563 C 169.970 94.289,170.320 93.045,170.420 92.797 C 170.520 92.550,170.545 92.347,170.477 92.347 C 170.408 92.347,170.227 92.666,170.074 93.055 M207.972 94.548 C 208.918 96.722,209.335 97.361,208.777 95.779 C 208.377 94.646,207.379 92.605,207.224 92.605 C 207.171 92.605,207.508 93.479,207.972 94.548 M256.567 93.891 L 256.592 94.534 262.315 94.541 L 268.039 94.549 262.396 94.472 C 256.790 94.396,256.753 94.392,256.648 93.821 C 256.557 93.331,256.546 93.341,256.567 93.891 M224.883 94.405 C 224.883 94.900,224.936 95.103,225.000 94.855 C 225.065 94.608,225.065 94.203,225.000 93.955 C 224.936 93.707,224.883 93.910,224.883 94.405 M181.365 96.863 C 180.188 100.673,179.794 108.392,180.558 112.661 C 182.050 121.003,187.032 125.350,195.113 125.361 C 206.435 125.376,212.499 114.824,209.809 99.786 L 209.514 98.135 195.432 98.069 C 187.687 98.032,181.350 97.902,181.350 97.779 C 181.350 97.657,181.525 97.061,181.739 96.455 C 181.953 95.849,182.077 95.303,182.014 95.240 C 181.952 95.178,181.660 95.908,181.365 96.863 M237.027 95.925 C 237.277 96.329,239.486 97.809,239.481 97.569 C 239.478 97.456,238.887 96.978,238.167 96.507 C 237.447 96.036,236.934 95.774,237.027 95.925 M147.664 97.685 C 147.656 97.917,147.016 98.006,145.359 98.006 L 143.065 98.006 142.419 100.000 C 138.277 112.784,135.156 122.322,134.738 123.473 C 134.455 124.251,133.733 126.515,133.133 128.504 C 132.533 130.493,131.828 132.606,131.566 133.199 L 131.091 134.277 124.967 134.277 C 117.709 134.277,118.247 134.791,120.164 129.690 C 120.890 127.756,121.810 125.248,122.209 124.116 C 122.607 122.984,123.503 120.495,124.200 118.585 C 126.687 111.773,128.931 105.563,129.639 103.537 C 130.034 102.405,130.661 100.684,131.031 99.712 C 131.401 98.740,131.704 97.930,131.704 97.911 C 131.704 97.893,127.769 97.910,122.958 97.949 L 114.212 98.020 114.212 116.277 L 114.212 134.534 149.239 134.534 C 168.504 134.534,184.214 134.482,184.152 134.420 C 184.089 134.357,182.999 133.788,181.729 133.155 C 175.255 129.929,170.867 123.729,169.140 115.372 C 168.216 110.895,168.105 102.818,168.914 98.776 L 169.068 98.006 164.388 98.006 L 159.708 98.006 159.882 98.585 C 159.978 98.904,160.326 99.859,160.655 100.707 C 160.985 101.556,161.718 103.582,162.284 105.209 C 162.851 106.836,163.963 109.961,164.755 112.154 C 165.548 114.347,166.647 117.415,167.196 118.971 C 169.229 124.723,170.508 128.296,171.416 130.752 C 172.855 134.646,173.428 134.277,165.948 134.277 C 158.625 134.277,159.264 134.507,158.476 131.576 C 157.961 129.661,156.973 126.478,154.205 117.814 C 153.595 115.904,152.211 111.505,151.130 108.039 C 148.837 100.689,147.680 97.234,147.664 97.685 M225.347 97.685 C 225.340 97.913,224.769 98.006,223.379 98.006 L 221.421 98.006 221.586 99.107 C 224.061 115.612,218.989 128.707,208.232 133.589 L 206.174 134.523 221.222 134.528 C 238.055 134.534,236.687 134.713,232.976 132.990 C 227.693 130.537,224.030 124.632,223.720 118.071 L 223.666 116.913 229.329 116.844 L 234.993 116.775 235.334 118.259 C 236.751 124.426,244.634 127.792,252.154 125.443 C 257.121 123.891,259.059 120.944,257.967 116.607 C 257.250 113.759,255.190 112.711,246.174 110.610 C 232.852 107.505,227.981 104.659,225.850 98.736 C 225.578 97.981,225.352 97.508,225.347 97.685 M241.215 98.386 C 242.197 98.814,243.473 99.163,249.646 100.693 C 265.722 104.678,269.822 108.314,269.835 118.595 C 269.844 125.484,266.883 130.173,260.450 133.457 L 258.392 134.508 267.699 134.521 L 277.006 134.534 277.118 135.113 C 277.180 135.431,277.217 127.241,277.201 116.913 L 277.170 98.135 258.778 98.080 C 242.788 98.032,240.494 98.072,241.215 98.386 M158.778 137.276 C 158.601 137.348,158.457 137.526,158.457 137.674 C 158.457 137.855,158.560 137.857,158.778 137.680 C 158.955 137.536,159.331 137.362,159.614 137.292 L 160.129 137.166 159.614 137.156 C 159.331 137.151,158.955 137.205,158.778 137.276 M232.264 137.332 C 232.607 137.428,232.939 137.660,233.002 137.848 C 233.084 138.096,232.949 138.143,232.506 138.020 C 231.918 137.857,231.914 137.865,232.396 138.250 C 233.089 138.804,233.312 138.751,233.312 138.034 C 233.312 137.413,232.859 137.085,232.069 137.132 C 231.817 137.147,231.897 137.229,232.264 137.332 M246.495 137.276 C 246.318 137.348,246.174 137.526,246.174 137.674 C 246.174 137.855,246.277 137.857,246.495 137.680 C 246.672 137.536,247.048 137.362,247.331 137.292 L 247.846 137.166 247.331 137.156 C 247.048 137.151,246.672 137.205,246.495 137.276 M120.530 138.037 C 120.293 138.982,120.481 139.038,120.825 138.125 C 120.983 137.706,121.020 137.363,120.906 137.363 C 120.792 137.363,120.623 137.666,120.530 138.037 M121.972 138.148 C 122.123 138.580,122.294 138.885,122.352 138.827 C 122.479 138.700,121.994 137.363,121.820 137.363 C 121.754 137.363,121.822 137.717,121.972 138.148 M127.846 138.506 C 127.846 139.134,127.932 139.702,128.039 139.767 C 128.145 139.833,128.232 139.319,128.232 138.625 C 128.232 137.931,128.145 137.363,128.039 137.363 C 127.932 137.363,127.846 137.877,127.846 138.506 M129.184 137.583 C 128.917 137.752,128.930 137.861,129.248 138.125 C 129.586 138.405,129.646 138.373,129.646 137.909 C 129.646 137.294,129.643 137.292,129.184 137.583 M130.121 138.650 C 130.072 139.357,130.119 139.936,130.225 139.936 C 130.331 139.936,130.418 139.357,130.418 138.650 C 130.418 136.990,130.236 136.990,130.121 138.650 M135.593 138.585 C 135.576 139.328,135.655 139.936,135.768 139.936 C 135.881 139.936,135.933 139.502,135.882 138.971 C 135.725 137.317,135.624 137.182,135.593 138.585 M143.310 138.585 C 143.293 139.328,143.372 139.936,143.485 139.936 C 143.598 139.936,143.650 139.502,143.599 138.971 C 143.442 137.317,143.341 137.182,143.310 138.585 M152.797 137.621 C 152.797 137.762,152.566 137.878,152.283 137.878 C 152.000 137.878,151.768 137.994,151.768 138.135 C 151.768 138.277,151.990 138.392,152.262 138.392 C 152.533 138.392,152.813 138.537,152.884 138.714 C 152.956 138.891,153.023 138.659,153.034 138.199 C 153.046 137.740,152.997 137.363,152.926 137.363 C 152.855 137.363,152.797 137.479,152.797 137.621 M160.345 137.736 C 160.493 138.122,160.418 138.167,159.853 138.025 C 159.420 137.916,159.243 137.951,159.351 138.125 C 159.441 138.272,159.686 138.392,159.895 138.392 C 160.440 138.392,160.632 139.098,160.222 139.595 C 159.922 139.958,159.927 140.001,160.257 139.892 C 160.705 139.744,160.849 137.699,160.430 137.440 C 160.271 137.341,160.238 137.456,160.345 137.736 M172.656 137.672 C 172.199 138.129,172.282 139.308,172.797 139.699 C 173.180 139.989,173.200 139.986,172.926 139.679 C 172.518 139.221,172.510 138.075,172.913 137.672 C 173.083 137.502,173.164 137.363,173.093 137.363 C 173.023 137.363,172.826 137.502,172.656 137.672 M180.395 138.521 C 180.397 139.228,180.447 139.487,180.506 139.096 C 180.565 138.705,180.564 138.126,180.503 137.810 C 180.442 137.494,180.393 137.814,180.395 138.521 M181.191 138.264 C 181.217 139.141,181.308 139.298,181.805 139.327 C 182.260 139.354,182.277 139.336,181.883 139.247 C 181.523 139.165,181.348 138.862,181.270 138.183 L 181.161 137.235 181.191 138.264 M187.524 138.506 C 187.524 139.134,187.611 139.702,187.717 139.767 C 187.823 139.833,187.910 139.319,187.910 138.625 C 187.910 137.931,187.823 137.363,187.717 137.363 C 187.611 137.363,187.524 137.877,187.524 138.506 M188.424 138.625 C 188.424 139.319,188.511 139.833,188.617 139.767 C 188.723 139.702,188.810 139.134,188.810 138.506 C 188.810 137.877,188.723 137.363,188.617 137.363 C 188.511 137.363,188.424 137.931,188.424 138.625 M196.090 137.526 C 196.179 137.615,196.134 137.933,195.990 138.233 C 195.735 138.763,195.738 138.764,196.127 138.279 C 196.603 137.685,196.638 137.363,196.227 137.363 C 196.062 137.363,196.000 137.436,196.090 137.526 M201.749 138.650 C 201.749 139.428,201.797 139.746,201.856 139.357 C 201.915 138.968,201.915 138.331,201.856 137.942 C 201.797 137.553,201.749 137.871,201.749 138.650 M209.209 138.650 C 209.209 139.428,209.257 139.746,209.316 139.357 C 209.375 138.968,209.375 138.331,209.316 137.942 C 209.257 137.553,209.209 137.871,209.209 138.650 M231.085 137.762 C 230.936 138.150,231.888 139.421,232.328 139.421 C 232.752 139.421,232.526 139.023,231.961 138.774 C 231.596 138.614,231.390 138.307,231.403 137.942 C 231.427 137.268,231.302 137.197,231.085 137.762 M240.432 138.276 C 240.194 138.774,240.003 139.322,240.006 139.494 C 240.009 139.666,240.242 139.298,240.525 138.676 C 241.136 137.327,241.054 136.971,240.432 138.276 M248.062 137.736 C 248.210 138.122,248.135 138.167,247.570 138.025 C 247.137 137.916,246.960 137.951,247.068 138.125 C 247.159 138.272,247.403 138.392,247.612 138.392 C 248.157 138.392,248.349 139.098,247.939 139.595 C 247.639 139.958,247.645 140.001,247.974 139.892 C 248.422 139.744,248.566 137.699,248.147 137.440 C 247.988 137.341,247.955 137.456,248.062 137.736 M255.352 137.868 C 255.028 138.195,254.916 138.607,254.989 139.203 L 255.095 140.064 255.136 139.100 C 255.164 138.432,255.296 138.135,255.563 138.135 C 255.775 138.135,255.949 137.961,255.949 137.749 C 255.949 137.276,255.933 137.279,255.352 137.868 M261.123 138.585 C 261.107 139.328,261.186 139.936,261.299 139.936 C 261.412 139.936,261.463 139.502,261.413 138.971 C 261.255 137.317,261.154 137.182,261.123 138.585 M263.151 137.578 C 263.151 137.743,262.920 137.878,262.637 137.878 C 262.354 137.878,262.122 137.994,262.122 138.135 C 262.122 138.277,262.296 138.392,262.508 138.392 C 262.720 138.392,262.904 138.537,262.916 138.714 C 262.928 138.891,263.040 138.694,263.165 138.277 C 263.289 137.859,263.337 137.464,263.271 137.398 C 263.205 137.332,263.151 137.413,263.151 137.578 M268.630 138.650 C 268.630 139.428,268.678 139.746,268.737 139.357 C 268.796 138.968,268.796 138.331,268.737 137.942 C 268.678 137.553,268.630 137.871,268.630 138.650 M270.997 138.625 C 270.997 139.319,271.084 139.833,271.190 139.767 C 271.296 139.702,271.383 139.134,271.383 138.506 C 271.383 137.877,271.296 137.363,271.190 137.363 C 271.084 137.363,270.997 137.931,270.997 138.625 M136.506 138.049 C 136.274 138.282,136.288 139.105,136.527 139.253 C 136.633 139.318,136.720 139.036,136.720 138.625 C 136.720 138.214,136.711 137.878,136.699 137.878 C 136.687 137.878,136.600 137.955,136.506 138.049 M202.701 138.135 C 202.701 138.277,202.865 138.392,203.065 138.392 C 203.266 138.392,203.488 138.537,203.560 138.714 C 203.631 138.891,203.698 138.775,203.710 138.457 C 203.724 138.043,203.583 137.878,203.215 137.878 C 202.932 137.878,202.701 137.994,202.701 138.135 M217.610 138.277 C 217.335 138.608,217.360 138.749,217.757 139.113 C 218.209 139.525,218.217 139.525,217.897 139.100 C 217.625 138.739,217.622 138.572,217.878 138.264 C 218.054 138.051,218.140 137.878,218.069 137.878 C 217.999 137.878,217.792 138.057,217.610 138.277 M253.826 138.048 C 254.003 138.120,254.148 138.573,254.148 139.057 C 254.148 139.540,254.238 139.936,254.348 139.936 C 254.457 139.936,254.503 139.473,254.449 138.907 C 254.377 138.152,254.238 137.883,253.928 137.898 C 253.661 137.911,253.624 137.966,253.826 138.048 M239.198 139.220 C 239.316 139.935,239.352 139.971,239.433 139.456 C 239.486 139.121,239.423 138.741,239.293 138.612 C 239.151 138.469,239.113 138.709,239.198 139.220 M144.072 139.486 C 144.085 139.872,144.141 139.936,144.239 139.678 C 144.320 139.466,144.513 139.208,144.669 139.104 C 144.843 138.987,144.779 138.913,144.502 138.911 C 144.199 138.908,144.058 139.097,144.072 139.486 M151.768 139.164 C 151.768 139.305,151.990 139.421,152.262 139.421 C 152.533 139.421,152.813 139.566,152.884 139.743 C 152.966 139.946,153.022 139.909,153.034 139.642 C 153.046 139.409,152.872 139.149,152.648 139.063 C 152.059 138.837,151.768 138.870,151.768 139.164 M202.701 139.164 C 202.701 139.305,202.961 139.419,203.280 139.417 C 203.748 139.414,203.785 139.366,203.473 139.164 C 202.974 138.842,202.701 138.842,202.701 139.164 M209.829 139.421 C 209.755 139.704,209.791 139.936,209.909 139.936 C 210.027 139.936,210.176 139.733,210.241 139.486 C 210.353 139.057,210.360 139.057,210.388 139.486 C 210.405 139.733,210.523 139.936,210.651 139.936 C 210.779 139.936,210.824 139.704,210.750 139.421 C 210.676 139.138,210.469 138.907,210.289 138.907 C 210.110 138.907,209.903 139.138,209.829 139.421 M262.122 139.164 C 262.122 139.305,262.383 139.419,262.701 139.417 C 263.169 139.414,263.206 139.366,262.894 139.164 C 262.395 138.842,262.122 138.842,262.122 139.164 " stroke="none" fill="#52afde" fill-rule="evenodd"></path></g></svg>